<?xml version="1.0" encoding="utf-8"?>
<!-- Generator: Adobe Illustrator 19.2.0, SVG Export Plug-In . SVG Version: 6.00 Build 0)  -->
<svg version="1.1" id="Layer_1" xmlns="http://www.w3.org/2000/svg" xmlns:xlink="http://www.w3.org/1999/xlink" x="0px" y="0px"
	 viewBox="0 0 230.1 189.7" style="enable-background:new 0 0 230.1 189.7;" xml:space="preserve">
<style type="text/css">
	.st0{fill:url(#SVGID_1_);}
	.st1{fill:url(#SVGID_2_);}
</style>
<title>Andrea_Logo</title>
<linearGradient id="SVGID_1_" gradientUnits="userSpaceOnUse" x1="19.1148" y1="46.4863" x2="94.6921" y2="206.505">
	<stop  offset="0" style="stop-color:#EE4826"/>
	<stop  offset="0.9987" style="stop-color:#F7B539"/>
</linearGradient>
<path class="st0" d="M126.8,189.5l-0.2-0.4l-49-115l-22.9,53.7h34.8l0.2,0.4l8.8,20.9H45.6l-12.3,28.8H10.6l0.4-0.9l11.9-27.9H0.2
	v-21.3H32L77.6,20.9l0.6,1.3l71.3,167.2L126.8,189.5L126.8,189.5z"/>
<linearGradient id="SVGID_2_" gradientUnits="userSpaceOnUse" x1="132.4139" y1="-7.0252" x2="207.9912" y2="152.9934">
	<stop  offset="0" style="stop-color:#EE4826"/>
	<stop  offset="0.9987" style="stop-color:#F7B539"/>
</linearGradient>
<path class="st1" d="M206.8,177.9h-21.3v-61.3h-41.3v34.4l-21.6-50.8v-2.6l0.2-97.4h21.3v95.1h41.3V17.5h21.3v77.8h23v21.3h-23
	L206.8,177.9L206.8,177.9z"/>
</svg>
