<?xml version="1.0" encoding="utf-8"?>
<!-- Generator: Adobe Illustrator 19.2.0, SVG Export Plug-In . SVG Version: 6.00 Build 0)  -->
<svg version="1.1" id="Layer_1" xmlns="http://www.w3.org/2000/svg" xmlns:xlink="http://www.w3.org/1999/xlink" x="0px" y="0px"
	 viewBox="0 0 448 512" style="enable-background:new 0 0 448 512;" xml:space="preserve">
<style type="text/css">
	.st0{fill:#6CC39F;}
	.st1{fill:#EE4A25;}
	.st2{fill:#F7B537;}
</style>
<path class="st0" d="M16,132h416c8.8,0,16-7.2,16-16V76c0-8.8-7.2-16-16-16H16C7.2,60,0,67.2,0,76v40C0,124.8,7.2,132,16,132z"/>
<path class="st1" d="M16,292h416c8.8,0,16-7.2,16-16v-40c0-8.8-7.2-16-16-16H16c-8.8,0-16,7.2-16,16v40C0,284.8,7.2,292,16,292z"/>
<path class="st2" d="M15.3,449.7h416c8.8,0,16-7.2,16-16v-40c0-8.8-7.2-16-16-16h-416c-8.8,0-16,7.2-16,16v40
	C-0.7,442.5,6.4,449.7,15.3,449.7z"/>
</svg>
