<?xml version="1.0" encoding="utf-8"?>
<!-- Generator: Adobe Illustrator 19.2.0, SVG Export Plug-In . SVG Version: 6.00 Build 0)  -->
<svg version="1.1" id="Layer_1" xmlns="http://www.w3.org/2000/svg" xmlns:xlink="http://www.w3.org/1999/xlink" x="0px" y="0px"
	 viewBox="0 0 448 512" style="enable-background:new 0 0 448 512;" xml:space="preserve">
<style type="text/css">
	.st0{fill:#6CC39F;}
</style>
<path class="st0" d="M290.3,254.9l119.3-119.1c12.3-12.3,12.2-32.1,0-44.4l-22.2-22.2c-12.3-12.3-32.2-12.3-44.5,0l-119.3,119
	L104.9,69.2C92.6,57,72.7,57,60.4,69.2L38.1,91.5c-12.3,12.3-12.3,32.2,0,44.5l118.7,118.9L38.1,373.8c-12.3,12.3-12.3,32.2,0,44.5
	l22.2,22.2c12.3,12.3,32.2,12.3,44.5,0l118.8-118.9l118.8,118.9c12.3,12.3,32.2,12.3,44.5,0l22.2-22.2c12.3-12.3,12.3-32.2,0-44.5
	L290.3,254.9z"/>
</svg>
